<?xml version="1.0" standalone="no"?>
<!DOCTYPE svg PUBLIC "-//W3C//DTD SVG 1.1//EN" "http://www.w3.org/Graphics/SVG/1.1/DTD/svg11.dtd" >
<svg xmlns="http://www.w3.org/2000/svg">
<metadata>Generated by IcoMoon</metadata>
<defs>
<font id="sj" horiz-adv-x="1024">
<font-face units-per-em="1024" ascent="960" descent="-64" />
<missing-glyph horiz-adv-x="1024" />
<glyph unicode="&#x20;" horiz-adv-x="512" d="" />
<glyph unicode="&#xe900;" glyph-name="Alarms" horiz-adv-x="917" d="M547.655 408.78c-2.139-2.852-5.705-4.992-9.983-4.992h-29.237c0-14.975-12.123-27.097-27.097-27.097s-27.097 12.123-27.097 27.097h-29.237c-4.279 0-7.844 2.139-9.983 4.992s-2.139 7.131 0 10.696l19.253 33.515v39.22c0 26.384 21.393 47.777 47.777 47.777s47.777-21.393 47.777-47.777v-39.22l18.54-33.515c0.713-3.565 0.713-7.844-0.713-10.696zM481.337 389.526c7.844 0 13.549 6.418 13.549 13.549h-27.097c-0.713-7.131 5.705-13.549 13.549-13.549zM515.565 448c-0.713 1.426-1.426 3.565-0.713 5.705v37.081c0 0.713 0 1.426 0 1.426 0 18.54-14.975 34.228-34.228 34.228-18.54 0-34.228-14.975-34.228-34.228v-40.646c0 0 0 0 0-0.713s0-0.713 0-1.426 0-0.713-0.713-1.426c0 0 0 0 0-0.713l-17.114-30.663h104.111l-17.114 31.376z" />
<glyph unicode="&#xe901;" glyph-name="bar-chart-stats-up" horiz-adv-x="917" d="M696.582 186.47h-64.798c-12.461 0-18.38 9.346-18.38 21.496v263.866c0 12.461 6.231 43.303 18.38 43.303h64.798c12.461 0 26.169-9.346 26.169-21.496v-285.362c-1.558-12.461-15.577-21.807-26.169-21.807zM677.89 471.832h-21.496v-240.501h21.496v240.501zM718.077 689.28v0-87.852c0-12.461-9.346-21.496-21.496-21.496-12.461 0-21.496 9.346-21.496 21.496v33.957l-137.385-137.385c-7.788-7.788-19.938-9.346-29.284-1.558l-94.082 75.702-181.934-181.934c-4.673-4.673-9.346-6.231-15.577-6.231s-10.904 1.558-15.577 6.231c-9.346 9.346-9.346 23.053 0 30.841l195.953 195.953c7.788 7.788 19.938 9.346 29.284 1.558l94.082-75.702 123.366 123.366h-33.957c-12.461 0-21.496 9.346-21.496 21.496 0 12.461 9.346 21.496 21.496 21.496h86.294c3.115 0 4.673 0 7.788-1.558 4.673-1.558 9.346-6.231 12.461-12.461 0 0.312 1.558-2.804 1.558-5.919zM238.321 339.12h64.798c12.461 0 21.496-9.346 21.496-21.496v-109.659c0-12.461-9.346-21.496-21.496-21.496h-64.798c-12.461 0-21.496 9.346-21.496 21.496v109.659c0 12.15 9.346 21.496 21.496 21.496zM259.816 229.462h21.496v64.798h-21.496v-64.798zM369.475 448.779h64.798c12.461 0 21.496-9.346 21.496-21.496v-219.006c0-12.461-9.346-21.496-21.496-21.496h-64.798c-12.461 0-19.938 9.346-19.938 21.496v219.006c0 12.15 7.477 21.496 19.938 21.496zM390.97 229.462h21.496v175.703h-21.496v-175.703zM500.629 405.476h64.798c12.461 0 24.611-9.346 24.611-21.496v-175.703c0-12.461-12.461-21.496-24.611-21.496h-64.798c-12.461 0-18.38 9.346-18.38 21.496v175.703c-1.558 12.15 5.919 21.496 18.38 21.496zM522.125 229.462h24.611v131.154h-24.611v-131.154z" />
<glyph unicode="&#xe902;" glyph-name="Command" horiz-adv-x="917" d="M633.653 181.486h-353.275c-36.449 0-67.291 30.841-67.291 67.291v398.136c0 36.449 30.841 67.291 67.291 67.291h356.079c36.449 0 67.291-30.841 67.291-67.291v-398.136c-2.804-36.449-33.645-67.291-70.094-67.291zM656.083 646.912c0 11.215-11.215 22.43-22.43 22.43h-353.275c-11.215 0-22.43-11.215-22.43-22.43v-89.721h395.332c2.804 0 2.804 0 5.608 0v89.721h-2.804zM656.083 515.135c-2.804 0-2.804 0-5.608 0h-392.528v-131.777h395.332c2.804 0 2.804 0 5.608 0v131.777h-2.804zM656.083 338.497c-2.804 0-2.804 0-5.608 0h-392.528v-89.721c0-11.215 11.215-22.43 22.43-22.43h356.079c11.215 0 22.43 11.215 22.43 22.43v89.721h-2.804zM303.119 316.067h44.86v-44.86h-44.86v44.86zM303.119 492.705h44.86v-44.86h-44.86v44.86zM303.119 646.912h44.86v-44.86h-44.86v44.86z" />
<glyph unicode="&#xe903;" glyph-name="hand" horiz-adv-x="917" d="M528.044 182.42c-77.883 0-130.531 25.234-160.127 77.883-59.502 105.297-114.332 144.239-114.332 146.419 0 0 0 0-2.181 2.181 0 0 0 0-2.181 0 0 0 0 2.181-2.181 2.181l-2.181 2.181c0 2.181-2.181 2.181-2.181 4.673 0 2.181 0 2.181 0 4.673 0 2.181 0 2.181 0 4.673s0 2.181 0 4.673 0 2.181 2.181 4.673v2.181c0 0 0 0 2.181 2.181v2.181c27.415 27.415 86.917 38.941 123.678 9.034v162.619c0 29.907 25.234 54.829 54.829 54.829 4.673 0 9.034 0 11.527-2.181 4.673 22.742 25.234 45.795 52.649 45.795s47.976-22.742 52.649-45.795c4.673 0 9.034 2.181 11.527 2.181 34.268 0 54.829-27.415 54.829-54.829v-11.527c4.673 0 6.854 0 11.527 0 32.088 0 54.829-27.415 54.829-54.829v-205.922c6.542-80.063-52.96-160.127-147.042-160.127zM638.014 544.107c0 4.673-4.673 11.527-11.527 11.527s-11.527-6.854-11.527-9.034v-98.444c0-11.527-9.034-22.742-22.742-22.742-11.527 0-22.742 9.034-22.742 22.742v164.8c0 4.673-2.181 11.527-11.527 11.527-6.854 0-11.527-6.854-11.527-11.527v-142.058c0-11.527-9.034-22.742-22.742-22.742-11.527 0-22.742 9.034-22.742 22.742v185.672c0 4.673-4.673 11.527-11.527 11.527s-11.527-6.854-11.527-11.527v-183.491c0-11.527-9.034-22.742-22.742-22.742-11.527 0-22.742 9.034-22.742 22.742v139.566c0 4.673-4.673 11.527-11.527 11.527s-9.034-6.854-9.034-9.034v-210.594c0-4.673-2.181-9.034-4.673-13.707-4.673-4.673-11.527-6.854-15.888-6.854-4.673 0-9.034 2.181-13.707 4.673l-34.268 29.907c-11.527 9.034-29.907 9.034-43.614 4.673 22.742-22.742 61.683-66.356 103.117-137.385 13.707-22.742 41.122-54.829 121.497-54.829 66.356 0 109.97 57.322 109.97 109.97v203.741h3.738z" />
<glyph unicode="&#xe904;" glyph-name="Logout" horiz-adv-x="917" d="M397.201 224.166c0 2.804 0 2.804 0 5.608s0 2.804-2.804 2.804c-2.804 2.804-2.804 2.804-2.804 5.608 0 0-2.804 0-5.608 0s-5.608 0-5.608 0h-128.662c-19.626 0-33.645 5.608-47.664 19.626s-19.626 28.038-19.626 47.664v290.658c0 19.626 5.608 33.645 19.626 47.664s28.038 19.626 47.664 19.626h131.466c2.804 0 5.608 0 8.411 2.804s2.804 5.608 2.804 8.411c0 2.804 0 5.608 0 8.411s0 5.608 0 11.215c0 5.608 0 8.411 0 8.411 0 2.804 0 5.608-2.804 8.411s-5.608 2.804-8.411 2.804h-131.466c-33.645 0-61.371-11.215-83.802-36.449-22.43-22.43-36.449-50.468-36.449-83.802v-290.658c0-33.645 11.215-61.371 36.449-83.802 22.43-22.43 50.468-36.449 83.802-36.449h131.466c2.804 0 5.608 0 8.411 2.804s2.804 5.608 2.804 8.411c0 2.804 0 5.608 0 8.411s0 5.608 0 11.215c2.804 7.788 2.804 10.592 2.804 10.592zM774.464 470.274l-226.483 226.483c-5.608 5.608-11.215 8.411-19.626 8.411s-14.019-2.804-19.626-8.411c-5.608-5.608-8.411-11.215-8.411-19.626v-120.251h-184.426c-8.411 0-14.019-2.804-19.626-8.411s-8.411-11.215-8.411-19.626v-159.503c0-8.411 2.804-14.019 8.411-19.626s11.215-8.411 19.626-8.411h187.23v-120.251c0-8.411 2.804-14.019 8.411-19.626s11.215-8.411 19.626-8.411c8.411 0 14.019 2.804 19.626 8.411l226.483 226.483c5.608 5.608 8.411 11.215 8.411 19.626-2.804 11.527-5.608 17.134-11.215 22.742z" />
<glyph unicode="&#xe905;" glyph-name="notification" horiz-adv-x="848" d="M837.675 138.112c-12.245-19.968-34.304-31.445-60.416-31.445h-184.448c0-94.080-76.075-170.667-169.557-170.667s-169.515 76.587-169.515 170.667h-184.363c-26.112 0-48.171 11.477-60.416 31.445s-12.587 44.971-0.939 68.48l118.656 210.048v244.693c0 164.693 133.035 298.667 296.576 298.667 163.584 0 296.704-133.973 296.704-298.667v-244.693l117.589-208.043c12.715-25.515 12.416-50.517 0.128-70.485zM423.253 21.333c46.763 0 84.821 38.272 84.821 85.333h-169.6c0-47.061 38.016-85.333 84.779-85.333zM640.768 384.256c-6.059 10.667-6.784 22.784-3.413 33.664v232.704c-0.939 3.499-2.133 6.912-2.133 10.709 0 117.632-95.104 213.333-211.968 213.333-116.779 0-211.797-95.701-211.797-213.333v-256c0-0.853-0.469-1.536-0.512-2.389-0.128-2.859-0.939-5.504-1.664-8.32s-1.365-5.547-2.645-8.064c-0.341-0.768-0.341-1.579-0.725-2.304l-108.672-192.256h652.203l-108.672 192.256z" />
<glyph unicode="&#xe907;" glyph-name="router" horiz-adv-x="917" d="M707.174 185.847h-498.76c-12.461 0-23.053 13.707-23.053 26.169v135.516c0 12.461 10.904 19.938 23.053 19.938h114.020c0 1.558 0 1.558 0 3.115v247.978c0 12.461 10.904 23.053 23.053 23.053s23.053-10.904 23.053-23.053v-247.978c0-1.558 0-1.558 0-3.115h340.191c12.461 0 23.053-7.788 23.053-19.938v-135.516c-1.558-12.15-12.15-26.169-24.611-26.169zM685.678 322.921h-454.211v-90.967h454.211v90.967zM343.929 258.434h-44.549v41.434h44.549v-41.434zM434.585 258.434h-44.549v41.434h44.549v-41.434zM525.552 258.434h-44.549v41.434h44.549v-41.434zM616.518 258.434h-44.549v41.434h44.549v-41.434zM434.585 483.047c-6.231 0-12.461 3.115-16.823 7.788-7.788 9.346-6.231 23.053 3.115 32.399 24.611 19.938 37.072 46.106 37.072 72.275 0 27.726-13.707 53.895-37.072 72.275-9.346 7.788-10.904 21.496-3.115 32.399 7.788 9.346 21.496 10.904 32.399 3.115 33.957-27.726 53.895-66.356 53.895-107.789s-18.38-78.506-53.895-107.789c-4.673-3.115-9.346-4.673-15.577-4.673zM271.343 492.393c-4.673-6.231-10.904-7.788-16.823-7.788-4.673 0-10.904 1.558-13.707 4.673-33.957 29.284-53.895 66.356-53.895 107.789s18.38 78.506 53.895 107.789c9.346 7.788 24.611 6.231 32.399-3.115s6.231-23.053-3.115-32.399c-24.611-19.938-37.072-46.106-37.072-72.275 0-27.726 13.707-53.895 37.072-72.275 7.477-9.346 9.034-23.053 1.246-32.399z" />
<glyph unicode="&#xe908;" glyph-name="search" horiz-adv-x="917" d="M703.435 233.823l-124.612 128.974c32.711 37.072 50.156 85.359 50.156 135.516 0 115.889-94.082 211.841-211.841 211.841s-211.841-94.082-211.841-211.841 94.082-211.841 211.841-211.841c43.614 0 85.359 13.084 122.431 39.253l126.793-131.154c4.361-4.361 13.084-8.723 19.626-8.723s13.084 2.181 19.626 8.723c8.723 10.904 8.723 28.349-2.181 39.253zM417.139 655.323c85.359 0 157.323-69.783 157.323-157.323s-69.783-157.323-157.323-157.323-157.323 69.783-157.323 157.323c0 87.54 70.094 157.323 157.323 157.323z" />
<glyph unicode="&#xe909;" glyph-name="speedometer" horiz-adv-x="917" d="M740.819 431.645c0-42.368-9.657-84.736-27.726-122.12 0-1.558 0-3.115-1.558-4.984l-1.558-1.558c-22.742-48.91-58.568-91.278-102.493-120.562-11.527-6.542-26.169-3.115-32.399 6.542-6.542 11.527-3.115 26.169 6.542 32.399 30.841 21.184 57.010 48.91 76.636 82.867l-24.299 13.084c-11.527 6.542-16.2 19.626-9.657 30.841 6.542 11.527 19.626 16.2 30.841 9.657l21.184-11.527c6.542 21.184 11.527 42.368 13.084 65.11h-22.742c-13.084 0-22.742 9.657-22.742 22.742s9.657 22.742 22.742 22.742h21.184c-3.115 26.169-9.657 50.468-21.184 71.652l-17.757-9.657c-3.115-1.558-8.1-3.115-11.527-3.115-8.1 0-16.2 4.984-21.184 11.527-6.542 11.527-3.115 26.169 8.1 32.399l17.757 9.657c-16.2 22.742-37.384 42.368-60.125 57.010l-9.657-17.757c-4.984-8.1-13.084-13.084-21.184-13.084-3.115 0-8.1 1.558-11.527 3.115-11.527 6.542-16.2 19.626-9.657 30.841l9.657 17.757c-19.626 8.1-42.368 14.642-63.552 16.2v-22.742c0-13.084-9.657-22.742-22.742-22.742s-22.742 9.657-22.742 22.742v22.742c-26.169-3.115-50.468-9.657-73.21-21.184l11.527-17.757c6.542-11.527 3.115-26.169-8.1-32.399-3.115-1.558-8.1-3.115-11.527-3.115-8.1 0-16.2 4.984-19.626 11.527l-6.542 24.299c-19.626-14.642-37.384-32.399-52.026-52.026l17.757-9.657c11.527-6.542 14.642-21.184 8.1-32.399-4.984-8.1-13.084-11.527-21.184-11.527-3.115 0-8.1 1.558-11.527 3.115l-17.757 11.527c-9.657-22.742-17.757-47.041-21.184-73.21h21.184c13.084 0 22.742-9.657 22.742-22.742s-9.657-22.742-22.742-22.742h-22.742c1.558-26.169 8.1-50.468 17.757-74.767l21.184 13.084c11.527 6.542 26.169 3.115 32.399-8.1 6.542-11.527 3.115-26.169-8.1-32.399l-24.299-14.642c17.757-29.284 42.368-55.452 71.652-73.21 11.527-6.542 14.642-21.184 6.542-32.399-4.984-6.542-11.527-11.527-19.626-11.527-4.984 0-8.1 1.558-13.084 3.115-81.309 52.026-131.777 146.419-131.777 247.355 0 1.558 0 3.115 0 4.984 0 0 0 0 0 1.558v1.558c3.115 100.936 57.010 188.787 138.319 237.698l1.558 1.558h1.558c40.81 24.299 87.852 37.384 139.877 37.384v0 0 0c45.483 0 89.409-11.527 126.793-30.841 1.558 0 3.115 0 3.115-1.558 1.558 0 1.558-1.558 3.115-1.558 43.926-24.299 81.309-60.125 107.478-102.493l1.558-1.558v-1.558c22.742-40.81 37.384-86.294 37.384-136.762v-1.558c0 0 0 0 0-1.558 3.738-1.869 3.738-3.738 3.738-5.296zM459.507 483.67c8.1 0 16.2-1.558 22.742-6.542l82.867 48.91c11.527 6.542 26.169 3.115 32.399-8.1 6.542-11.527 3.115-26.169-8.1-32.399l-82.867-48.91c0-26.169-21.184-47.041-47.041-47.041s-47.041 21.184-47.041 47.041c-0.312 27.726 20.873 47.041 47.041 47.041z" />
<glyph unicode="&#xe90a;" glyph-name="user-2" horiz-adv-x="917" d="M581.315 587.098c0-67.273-54.535-121.808-121.808-121.808s-121.808 54.535-121.808 121.808c0 67.273 54.535 121.808 121.808 121.808s121.808-54.535 121.808-121.808zM459.507 406.411c-121.808 0-219.94-97.821-219.94-219.94h437.389c2.492 122.12-95.328 219.94-217.448 219.94z" />
<glyph unicode="&#xe90b;" glyph-name="user" horiz-adv-x="917" d="M682.563 187.093h-446.734c-21.496 0-38.318 16.823-38.318 38.318v32.088c0 7.788 4.673 15.265 10.592 18.38l148.911 89.098c-50.779 56.699-50.779 132.089-50.779 136.45v93.459c0 1.558 0 3.115 0 3.115 12.15 66.044 87.54 110.593 152.027 110.593v0c64.487 0 139.566-44.549 152.027-110.593 0-1.558 0-3.115 0-3.115v-93.459c0-3.115 0-79.752-50.779-136.45l148.911-89.098c6.231-4.673 10.592-10.592 10.592-18.38v-32.088c1.869-21.496-14.953-38.318-36.449-38.318zM676.332 243.792l-162.619 98.132c-1.558 1.558-3.115 3.115-4.673 4.673 0 0-1.558 0-1.558 1.558v0c-1.558 1.558-1.558 3.115-3.115 4.673 0 1.558-1.558 1.558-1.558 3.115s0 3.115 0 4.673c0 1.558 0 3.115 0 4.673s0 1.558 1.558 3.115c0 1.558 1.558 3.115 1.558 4.673v0c0 1.558 1.558 1.558 3.115 3.115s1.558 1.558 3.115 3.115c56.699 42.991 56.699 121.185 56.699 122.743v90.655c-7.788 38.318-59.814 73.521-109.036 73.521s-99.69-35.203-109.036-73.521v-90.655c0 0 1.558-79.752 56.699-122.743 1.558-1.558 1.558-1.558 3.115-3.115s1.558-1.558 3.115-3.115v0c1.558-1.558 1.558-3.115 1.558-4.673s1.558-1.558 1.558-3.115 0-3.115 0-4.673c0-1.558 0-3.115 0-4.673s-1.558-1.558-1.558-3.115-1.558-3.115-3.115-4.673v0c-1.558-1.558-1.558-1.558-3.115-3.115s-1.558-1.558-3.115-3.115l-164.176-98.132v-13.707h434.273v13.707z" />
<glyph unicode="&#xe90c;" glyph-name="warning-triangle" horiz-adv-x="1122" d="M1075.378-63.578c-0.328 0-0.609 0-0.938 0h-1028.688c-16.501 0-31.83 8.719-40.221 22.923-8.438 14.157-8.719 31.783-0.75 46.222l514.344 932.87c16.407 29.767 65.535 29.767 81.943 0l510.359-925.65c6.704-8.063 10.735-18.423 10.735-29.721 0-25.736-20.954-46.643-46.784-46.643zM560.097 819.132l-435.261-789.423h870.522l-435.261 789.423zM560.097 589.431c25.83 0 46.784-20.861 46.784-46.643v-233.217c0-25.736-20.954-46.643-46.784-46.643s-46.737 20.908-46.737 46.643v233.217c0 25.783 20.908 46.643 46.737 46.643zM593.427 202.782c8.391-8.86 13.548-21.001 13.548-33.143s-5.157-24.236-14.016-33.096c-8.438-8.391-20.579-13.548-32.721-13.548-12.657 0-24.33 5.157-33.19 13.548-8.907 8.86-13.595 20.954-13.595 33.096s4.688 24.283 13.595 33.143c17.251 17.251 49.081 17.251 66.379 0z" />
<glyph unicode="&#xe90d;" glyph-name="Alarms2" horiz-adv-x="917" d="M733.654 243.169c-8.723-11.838-23.676-20.561-41.434-20.561h-120.562c0-61.995-50.156-112.151-112.151-112.151s-112.151 50.156-112.151 112.151h-120.874c-17.757 0-32.399 8.723-41.434 20.561-8.723 11.838-8.723 29.595 0 44.237l79.752 138.631v162.307c0 109.036 88.475 197.51 197.51 197.51s197.51-88.475 197.51-197.51v-162.307l76.636-138.631c3.115-14.953 3.115-32.399-2.804-44.237zM459.507 163.417c32.399 0 56.075 26.48 56.075 56.075h-112.151c-3.115-29.595 23.676-56.075 56.075-56.075zM600.942 405.165c-2.804 5.919-5.919 14.642-2.804 23.676v153.273c0 2.804 0 5.919 0 5.919 0 76.636-61.995 141.435-141.435 141.435-76.636 0-141.435-61.995-141.435-141.435v-168.226c0 0 0 0 0-2.804s0-2.804 0-5.919 0-2.804-2.804-5.919c0 0 0 0 0-2.804l-70.717-126.793h429.912l-70.717 129.597z" />
<glyph unicode="&#xe90e;" glyph-name="notification2" horiz-adv-x="917" d="M728.358 245.661c-7.165-11.838-21.496-21.496-40.81-21.496h-119.628c0-62.306-50.156-112.462-110.282-112.462s-110.282 50.156-110.282 112.462h-119.628c-16.823 0-31.153 7.165-40.81 21.496-7.165 11.838-7.165 28.661 0 45.483l76.636 136.45v160.438c0 107.789 86.294 196.264 194.083 196.264s194.083-88.475 194.083-196.264v-160.438l76.636-136.45c9.657-14.33 9.657-30.841 0-45.483zM457.638 169.025c31.153 0 55.141 23.988 55.141 55.141h-110.282c0-28.661 23.988-55.141 55.141-55.141zM599.073 408.591c-4.673 7.165-4.673 14.33-2.492 21.496v153.273c0 2.492-2.492 4.673-2.492 7.165 0 76.636-62.306 138.943-138.943 138.943s-138.943-62.306-138.943-138.943v-167.603c0 0 0 0 0-2.492s0-4.673 0-4.673c0-2.492 0-4.673-2.492-4.673 0 0 0 0 0-2.492l-71.963-126.793h426.485l-69.16 126.793z" />
<glyph unicode="&#xe90f;" glyph-name="Pumps2" horiz-adv-x="917" d="M703.124 110.457h-489.103c-7.788 0-14.953 4.050-19.315 10.592s-4.673 14.953-1.246 21.807l65.421 138.319c3.738 7.788 11.838 13.084 20.561 13.084h358.26c8.723 0 16.823-4.984 20.561-13.084l65.421-138.319c3.427-7.165 2.804-15.265-1.246-21.807-4.361-6.542-11.527-10.592-19.315-10.592zM249.847 155.629h417.451l-43.926 92.836h-329.599l-43.926-92.836zM360.752 248.776c-1.246 0-2.492 0-3.738 0.312-12.461 1.869-20.873 13.707-18.692 26.169l65.11 404.678c1.869 12.461 13.707 20.873 26.169 18.692 12.461-1.869 20.873-13.707 18.692-26.169l-65.11-404.678c-1.869-11.215-11.527-19.003-22.43-19.003zM556.393 248.776c-10.904 0-20.561 7.788-22.43 19.003l-65.11 404.678c-1.869 12.461 6.542 23.988 18.692 26.169 12.461 1.869 23.988-6.542 26.169-18.692l65.11-404.678c1.869-12.461-6.542-23.988-18.692-26.169-1.246-0.312-2.492-0.312-3.738-0.312zM491.283 653.454c-8.723 0-17.134 5.296-20.873 13.707-4.984 11.527 0.312 24.922 11.838 29.907 8.723 3.738 19.003 9.969 19.003 19.938 0 9.346-18.069 23.365-42.368 23.365-23.053 0-42.368-10.592-42.368-23.365 0-5.608 7.165-14.953 19.003-19.938 11.527-4.984 16.823-18.38 11.838-29.907s-18.38-16.823-29.907-11.838c-27.726 11.838-46.418 36.761-46.418 61.683 0 39.253 37.695 68.848 87.852 68.848 47.664 0 87.852-31.465 87.852-68.848 0-26.48-16.823-49.222-46.418-61.683-3.115-1.246-5.919-1.869-9.034-1.869zM531.782 365.6h-146.419c-12.461 0-22.742 10.28-22.742 22.742s10.28 22.742 22.742 22.742h146.419c12.461 0 22.742-10.28 22.742-22.742s-10.28-22.742-22.742-22.742zM512.779 485.228h-108.413c-12.461 0-22.742 10.28-22.742 22.742s10.28 22.742 22.742 22.742h108.413c12.461 0 22.742-10.28 22.742-22.742s-10.28-22.742-22.742-22.742z" />
<glyph unicode="&#xe910;" glyph-name="arrow-1-down" d="M508.715 152.917c-11.861 0-23.211 4.949-31.232 13.739l-465.365 508.459c-15.787 17.28-14.635 44.075 2.603 59.861 17.237 15.829 43.989 14.635 59.776-2.603l434.219-474.368 434.176 474.368c15.744 17.237 42.581 18.432 59.776 2.603 17.237-15.787 18.389-42.581 2.603-59.861l-465.365-508.459c-8.021-8.789-19.328-13.739-31.189-13.739z" />
<glyph unicode="&#xe911;" glyph-name="arrow-1-right" horiz-adv-x="597" d="M43.555-64c-11.521 0-22.998 4.625-31.392 13.79-15.846 17.345-14.69 44.369 2.612 60.258l476.239 437.695-476.239 437.652c-17.302 15.932-18.459 42.913-2.612 60.258 15.889 17.345 42.827 18.544 60.129 2.612l510.415-469.087c8.78-8.094 13.79-19.529 13.79-31.435 0-11.949-5.011-23.384-13.79-31.435l-510.415-469.13c-8.18-7.495-18.459-11.178-28.737-11.178z" />
<glyph unicode="&#xe912;" glyph-name="lock" horiz-adv-x="917" d="M643.622 513.266h-32.711v43.614c0 84.113-68.225 152.338-152.338 152.338s-152.338-68.225-152.338-152.338v-43.614h-32.711c-5.919 0-10.904-4.984-10.904-10.904v-271.966c0-23.988 19.626-43.614 43.614-43.614h304.677c23.988 0 43.614 19.626 43.614 43.614v271.966c0 6.231-4.984 10.904-10.904 10.904zM491.283 285.848c0.312-3.115-0.623-6.231-2.804-8.411s-4.984-3.738-8.1-3.738h-43.614c-3.115 0-5.919 1.246-8.1 3.738s-3.115 5.296-2.804 8.411l6.854 61.683c-11.215 8.1-17.757 20.873-17.757 34.891 0 23.988 19.626 43.614 43.614 43.614s43.614-19.626 43.614-43.614c0-14.019-6.542-26.792-17.757-34.891l6.854-61.683zM545.49 513.266h-174.145v43.614c0 47.976 38.941 86.917 86.917 86.917s86.917-38.941 86.917-86.917v-43.614z" />
<glyph unicode="&#xe913;" glyph-name="check" horiz-adv-x="1362" d="M513.823-63.192c-14.926 0-29.28 5.947-39.916 16.47l-457.494 454.863c-22.246 22.131-22.417 58.102-0.343 80.405 22.017 22.303 57.93 22.417 80.233 0.343l414.547-412.145 750.519 863.92c20.473 23.675 56.329 26.192 80.004 5.547 23.618-20.644 26.077-56.558 5.49-80.233l-790.264-909.612c-10.294-11.895-24.991-18.929-40.66-19.501-0.686-0.057-1.372-0.057-2.116-0.057z" />
<glyph unicode="&#xe92c;" glyph-name="Search" d="M683.841 842.832c-156.213 156.213-410.46 156.213-566.673 0-156.179-156.246-156.179-410.46 0-566.707 139.111-139.078 355.77-153.978 511.881-45.377 3.285-15.543 10.802-30.376 22.892-42.465l227.495-227.495c33.152-33.085 86.725-33.085 119.708 0 33.119 33.119 33.119 86.691 0 119.708l-227.495 227.563c-12.022 11.988-26.888 19.539-42.431 22.824 108.668 156.145 93.768 372.77-45.377 511.949zM612.016 347.95c-116.626-116.626-306.431-116.626-423.024 0-116.558 116.626-116.558 306.397 0 423.024 116.592 116.592 306.397 116.592 423.024 0 116.626-116.626 116.626-306.397 0-423.024z" />
<glyph unicode="&#xe96f;" glyph-name="alarm" d="M956.528 116.764c-86.761 86.221-130.737 188.267-130.737 303.309v167.452c0.801 127.665-85.048 212.34-158.813 246.058-21.132 9.663-42.915 17.11-65.052 22.64v10.687c0 51.33-41.761 93.091-93.091 93.091s-93.091-41.761-93.091-93.091v-12.307c-19.94-5.381-39.545-12.4-58.573-21.187-81.529-37.571-164.119-128.13-164.864-245.779v-167.564c0-118.933-42.003-220.979-124.835-303.309-4.934-4.915-6.721-12.158-4.636-18.804s7.727-11.562 14.597-12.753l176.705-30.515c32.917-5.679 63.227-10.333 92.067-14.168 32.507-63.674 96.312-104.522 166.018-104.522 69.725 0 133.548 40.886 166.018 104.597 28.728 3.817 58.889 8.453 91.62 14.113l176.687 30.515c6.87 1.173 12.493 6.107 14.597 12.753 2.104 6.628 0.317 13.871-4.617 18.786zM452.962 866.909c0 30.794 25.060 55.855 55.855 55.855s55.855-25.060 55.855-55.855v-3.389c-37.106 5.325-74.752 5.101-111.709-0.875v4.264zM512.223-26.764c-47.141 0-91.192 23.422-119.473 61.719 41.612-4.282 80.449-6.442 119.268-6.442 38.968 0 77.936 2.16 119.715 6.498-28.3-38.335-72.369-61.775-119.51-61.775zM763.532 91.406c-35.728-6.163-68.478-11.171-99.421-15.118-0.037 0-0.074 0-0.112 0-13.629-1.731-26.885-3.24-39.862-4.543-0.13-0.019-0.279-0.019-0.41-0.037-11.86-1.192-23.459-2.141-34.928-2.979-2.178-0.168-4.338-0.298-6.516-0.447-9.942-0.652-19.773-1.173-29.547-1.545-2.011-0.074-4.022-0.186-6.032-0.242-23.161-0.782-46.006-0.782-69.148-0.019-2.048 0.074-4.133 0.168-6.181 0.261-9.644 0.372-19.363 0.875-29.175 1.527-2.309 0.149-4.617 0.298-6.945 0.465-11.171 0.801-22.472 1.75-34.034 2.886-0.41 0.037-0.801 0.074-1.192 0.112-12.884 1.285-26.047 2.793-39.582 4.506-0.056 0-0.112 0-0.168 0-31.055 3.928-63.916 8.974-99.812 15.155l-142.634 24.65c74.156 84.787 111.709 186.889 111.709 304.035v167.452c0.633 101.19 72.387 179.423 143.192 212.080 21.057 9.7 42.896 16.943 65.108 22.025 0.186 0.037 0.391 0.019 0.577 0.056 45.875 10.314 94.711 10.78 141.126 1.266 0.242-0.056 0.484 0.056 0.726 0.019 24.278-5.064 48.184-12.735 71.215-23.254 68.682-31.409 137.7-109.121 137.048-212.098v-167.564c0-112.323 40.495-216.771 117.537-304.054l-142.541-24.595zM628.289 748.907c-72.145 32.973-160.489 33.010-232.15-0.037-40.867-18.842-110.182-73.97-110.741-161.122-0.056-10.277 8.211-18.655 18.506-18.73 0.037 0 0.074 0 0.112 0 10.221 0 18.562 8.248 18.618 18.506 0.428 68.459 56.208 112.361 89.088 127.535 62.017 28.616 138.631 28.542 201.058 0 9.346-4.282 20.406-0.168 24.688 9.179 4.282 9.365 0.168 20.406-9.179 24.669z" />
</font>
</defs>
</svg>
